<svg width="20" height="20" viewBox="0 0 20 20" fill="none" xmlns="http://www.w3.org/2000/svg">
    <path fill-rule="evenodd" clip-rule="evenodd" d="M12.4215 13.6C11.2925 14.4775 9.87401 15.0001 8.33342 15.0001C4.65152 15.0001 1.66675 12.0153 1.66675 8.33342C1.66675 4.65152 4.65152 1.66675 8.33342 1.66675C12.0153 1.66675 15.0001 4.65152 15.0001 8.33342C15.0001 9.87401 14.4775 11.2925 13.6 12.4215L18.0893 16.9108C18.4148 17.2363 18.4148 17.7639 18.0893 18.0893C17.7639 18.4148 17.2363 18.4148 16.9108 18.0893L12.4215 13.6ZM13.3334 8.33342C13.3334 11.0948 11.0948 13.3334 8.33342 13.3334C5.57199 13.3334 3.33341 11.0948 3.33341 8.33342C3.33341 5.57199 5.57199 3.33341 8.33342 3.33341C11.0948 3.33341 13.3334 5.57199 13.3334 8.33342Z" fill="#777E91"/>
</svg>
